<svg width="144" height="216" viewBox="0 0 144 216" fill="none" xmlns="http://www.w3.org/2000/svg">
<g clip-path="url(#clip0_2880_79)">
<path d="M72 0C32.2 0 0 32.2 0 72C0 126 72 216 72 216C72 216 144 126 144 72C144 32.2 111.8 0 72 0Z" fill="#1E3A8A"/>
<path d="M72 36L112 68V116C112 117.061 111.579 118.078 110.828 118.828C110.078 119.579 109.061 120 108 120H84V92H60V120H36C34.9391 120 33.9217 119.579 33.1716 118.828C32.4214 118.078 32 117.061 32 116V68L72 36ZM72 26L26 62C25.4012 62.3456 24.9023 62.8404 24.5517 63.4363C24.2012 64.0322 24.0111 64.7088 24 65.4V116C24 124.8 31.2 132 40 132H108C116.8 132 124 124.8 124 116V65.4C123.989 64.7088 123.799 64.0322 123.448 63.4363C123.098 62.8404 122.599 62.3456 122 62L72 26Z" fill="white"/>
</g>
<defs>
<clipPath id="clip0_2880_79">
<rect width="144" height="216" fill="white"/>
</clipPath>
</defs>
</svg>